<?xml version="1.0" encoding="utf-8"?>
<!-- Generator: Adobe Illustrator 19.0.0, SVG Export Plug-In . SVG Version: 6.00 Build 0)  -->
<svg version="1.1" id="Calque_1" xmlns="http://www.w3.org/2000/svg" xmlns:xlink="http://www.w3.org/1999/xlink" x="0px" y="0px"
	 viewBox="0 0 36 36" style="enable-background:new 0 0 36 36;" xml:space="preserve">
<style type="text/css">
	.st0{opacity:0.4;fill:#454545;}
	.st1{fill:none;}
	.st2{fill:#FFFFFF;}
</style>
<circle id="XMLID_1_" class="st0" cx="18" cy="18.6" r="17.1"/>
<path class="st1" d="M6,6h24v24H6V6z"/>
<circle id="XMLID_6_" class="st2" cx="18" cy="19.6" r="3.2"/>
<path id="XMLID_3_" class="st2" d="M15,9.6l-1.8,2H10c-1.1,0-2,0.9-2,2v12c0,1.1,0.9,2,2,2h16c1.1,0,2-0.9,2-2v-12c0-1.1-0.9-2-2-2
	h-3.2l-1.8-2H15z M18,24.6c-2.8,0-5-2.2-5-5s2.2-5,5-5s5,2.2,5,5S20.8,24.6,18,24.6z"/>
<path class="st1" d="M6,6h24v24H6V6z"/>
</svg>
