<?xml version="1.0" encoding="utf-8"?>
<!-- Generator: Adobe Illustrator 19.0.0, SVG Export Plug-In . SVG Version: 6.00 Build 0)  -->
<svg version="1.1" id="Calque_1" xmlns="http://www.w3.org/2000/svg" xmlns:xlink="http://www.w3.org/1999/xlink" x="0px" y="0px"
	 viewBox="0 0 36 36" style="enable-background:new 0 0 36 36;" xml:space="preserve">
<style type="text/css">
	.st0{opacity:0.4;fill:#454545;}
	.st1{fill:#FFFFFF;}
	.st2{fill:none;}
</style>
<circle id="XMLID_1_" class="st0" cx="18" cy="18.6" r="17.1"/>
<path id="XMLID_3_" class="st1" d="M18,12.6v3l4-4l-4-4v3c-4.4,0-8,3.6-8,8c0,1.6,0.5,3,1.2,4.3l1.5-1.5c-0.4-0.8-0.7-1.8-0.7-2.8
	C12,15.3,14.7,12.6,18,12.6z M24.8,14.4l-1.5,1.5c0.4,0.8,0.7,1.8,0.7,2.8c0,3.3-2.7,6-6,6v-3l-4,4l4,4v-3c4.4,0,8-3.6,8-8
	C26,17.1,25.5,15.6,24.8,14.4z"/>
<path class="st2" d="M6,6h24v24H6V6z"/>
</svg>
